<svg width="38" height="38" viewBox="0 0 38 38" fill="none" xmlns="http://www.w3.org/2000/svg">
<path d="M37.125 18.8876C37.1494 22.0542 36.3398 25.1714 34.7774 27.9259C34.575 28.2837 34.3607 28.6337 34.1344 28.9759C34.0225 29.1498 33.8772 29.2998 33.7069 29.4171C33.5367 29.5345 33.3448 29.6169 33.1424 29.6595C32.94 29.7021 32.7312 29.7041 32.5281 29.6655C32.3249 29.6268 32.1315 29.5482 31.9589 29.4341C31.7864 29.3201 31.6382 29.173 31.523 29.0013C31.4077 28.8296 31.3277 28.6367 31.2875 28.4338C31.2474 28.231 31.2479 28.0222 31.2891 27.8195C31.3303 27.6168 31.4113 27.4244 31.5274 27.2532C33.0185 24.9897 33.8685 22.3644 33.987 19.6564C34.1054 16.9484 33.4879 14.2589 32.2001 11.8738C30.9123 9.4887 29.0022 7.49708 26.673 6.11069C24.3438 4.7243 21.6825 3.99493 18.9719 4.0001C13.7618 4.01026 9.1422 6.74541 6.45706 10.8321C4.85189 13.2703 3.99772 16.1259 4.0005 19.045C4.00327 21.9641 4.86288 24.8182 6.47269 27.2532C6.70092 27.5991 6.78239 28.0216 6.69917 28.4275C6.61595 28.8335 6.37486 29.1898 6.02894 29.4181C5.68302 29.6463 5.2606 29.7278 4.85461 29.6445C4.44863 29.5613 4.09233 29.3202 3.8641 28.9743C2.0791 26.2655 1.05381 23.1272 0.895211 19.887C0.736621 16.6468 1.45053 13.4235 2.96245 10.5533C4.47437 7.68306 6.72889 5.27121 9.4907 3.56941C12.2526 1.86761 15.4206 0.938219 18.6641 0.878219C18.7782 0.875879 18.8914 0.875099 19.0047 0.875099C23.7949 0.865229 28.3933 2.75637 31.7905 6.13341C35.1878 9.5105 37.1063 14.0975 37.125 18.8876Z" fill="#F7F8FA"/>
<path d="M8.06585 21.7944L10.8978 35.8819C11.0678 36.7276 11.8911 37.2753 12.7368 37.1053C13.5825 36.9353 14.1303 36.1119 13.9603 35.2663L11.1284 21.1788C10.9584 20.3331 10.135 19.7853 9.2893 19.9553C8.4436 20.1253 7.89585 20.9487 8.06585 21.7944Z" fill="#04D361"/>
<path d="M10.8437 35.5641L10.1257 35.7086C9.0589 35.9234 7.95026 35.7225 7.02665 35.147C6.10304 34.5715 5.4342 33.6648 5.15694 32.6125C5.13585 32.5313 5.11632 32.45 5.09991 32.3672L4.071 27.2555C3.84803 26.1459 4.07473 24.9931 4.70129 24.0506C5.32784 23.108 6.30298 22.4528 7.41241 22.2289L8.13038 22.0844L9.3898 28.3406L10.8437 35.5641Z" fill="#F7F8FA"/>
<path d="M10.8437 35.5641L10.1258 35.7086C9.0589 35.9234 7.95031 35.7225 7.0267 35.147C6.10308 34.5715 5.43425 33.6649 5.15698 32.6125C6.67436 31.2981 8.08939 29.87 9.3898 28.3407L10.8437 35.5641Z" fill="#F7F8FA"/>
<path d="M35.1477 26.0875L34.7774 27.9258C34.575 28.2836 34.3607 28.6336 34.1344 28.9758C34.0225 29.1497 33.8772 29.2997 33.7069 29.4171C33.5366 29.5344 33.3448 29.6168 33.1424 29.6594C32.94 29.702 32.7312 29.7041 32.5281 29.6654C32.3249 29.6267 32.1315 29.5481 31.9589 29.4341C31.7864 29.3201 31.6382 29.1729 31.5229 29.0012C31.4077 28.8295 31.3277 28.6366 31.2875 28.4338C31.2474 28.2309 31.2479 28.0221 31.2891 27.8194C31.3303 27.6167 31.4112 27.4243 31.5274 27.2531C32.5865 25.6502 33.3258 23.8577 33.7047 21.9742C34.2927 22.4668 34.7371 23.1089 34.991 23.8327C35.245 24.5566 35.2991 25.3355 35.1477 26.0875Z" fill="#F7F8FA"/>
<path d="M33.2953 7.82973L31.0539 10.0711C29.6573 8.18253 27.836 6.64893 25.7371 5.59429C23.6383 4.53964 21.3208 3.99352 18.9719 4.00005C13.7617 4.0102 9.1422 6.74536 6.45703 10.832L4.18359 8.55863C5.82274 6.2294 7.98843 4.31987 10.5046 2.9853C13.0207 1.65072 15.8163 0.928775 18.6641 0.878165C18.7781 0.875825 18.8914 0.875045 19.0047 0.875045C21.7591 0.868875 24.4786 1.49226 26.9553 2.69759C29.4321 3.90293 31.6006 5.65832 33.2953 7.82973Z" fill="#8257E5"/>
<path d="M26.8465 21.1635L24.0146 35.251C23.8446 36.0967 24.3923 36.9201 25.238 37.0901C26.0837 37.2601 26.9071 36.7123 27.0771 35.8666L29.909 21.7791C30.079 20.9335 29.5312 20.1101 28.6855 19.9401C27.8398 19.7701 27.0165 20.3178 26.8465 21.1635Z" fill="#04D361"/>
<path d="M33.9291 27.2555L32.9002 32.3672C32.6768 33.4767 32.0218 34.4521 31.0793 35.0787C30.1368 35.7054 28.9839 35.9319 27.8743 35.7086L27.1562 35.5641L27.9 31.8711L29.8695 22.0844L30.5875 22.2289C31.6968 22.4531 32.672 23.108 33.2992 24.05C33.3856 24.1799 33.4646 24.3144 33.5359 24.4531C33.9817 25.3154 34.1205 26.3038 33.9291 27.2555Z" fill="#F7F8FA"/>
<path d="M33.9291 27.2555L32.9002 32.3672C32.6768 33.4768 32.0218 34.4521 31.0793 35.0788C30.1368 35.7054 28.9839 35.932 27.8743 35.7086L27.1562 35.5641L27.9 31.8711C30.0403 29.6086 31.9299 27.1215 33.5359 24.4531C33.9817 25.3154 34.1205 26.3039 33.9291 27.2555Z" fill="#F7F8FA"/>
</svg>
