<svg width="201" height="38" viewBox="0 0 201 38" fill="none" xmlns="http://www.w3.org/2000/svg">
<path d="M170.427 26.2166L170.427 26.2165C170.575 26.0056 170.793 25.7258 171.14 25.2787C171.938 24.2537 173.422 22.3461 175.907 18.8613L175.907 18.8614L175.913 18.8525C176.723 17.6645 177.288 16.7468 177.428 15.5671L177.433 15.5276L177.432 15.4877C177.371 14.0088 176.13 12.8397 174.631 12.8397C173.302 12.8397 172.14 13.7664 171.881 15.062C171.755 15.6896 171.129 16.1131 170.468 15.9859C169.811 15.8591 169.397 15.2393 169.522 14.6145C169.998 12.2378 172.142 10.5 174.631 10.5C177.504 10.5 179.827 12.7877 179.837 15.5828C179.72 17.2061 179.074 18.4529 177.878 20.1996C176.19 22.5674 174.958 24.2156 174.087 25.3561L173.472 26.1609L174.485 26.1596C175.903 26.1577 177.644 26.1447 179.283 26.1245L179.285 26.1245L179.299 26.1244C179.964 26.1244 180.492 26.6472 180.5 27.2797C180.508 27.9169 179.986 28.4558 179.314 28.464L179.313 28.4641L179.311 28.4641L179.307 28.4641L179.289 28.4644L179.222 28.4651L178.974 28.468C178.762 28.4703 178.461 28.4736 178.1 28.477C177.378 28.484 176.417 28.492 175.452 28.4963C174.903 28.4988 174.424 28.5 174.005 28.5C171.303 28.5 171.14 28.4457 170.963 28.3862C170.956 28.3839 170.949 28.3815 170.941 28.3791L170.786 28.8543L170.941 28.3791C170.526 28.2431 170.23 27.9421 170.109 27.5581L169.632 27.7077L170.109 27.5581C169.923 26.9639 170.246 26.4755 170.427 26.2166Z" fill="#494D4B" stroke="#494D4B"/>
<path d="M57.208 28V11.2H64.288C65.28 11.2 66.168 11.44 66.952 11.92C67.752 12.384 68.384 13.024 68.848 13.84C69.328 14.64 69.568 15.544 69.568 16.552C69.568 17.592 69.328 18.528 68.848 19.36C68.384 20.176 67.752 20.832 66.952 21.328C66.168 21.808 65.28 22.048 64.288 22.048H60.664V28H57.208ZM60.64 18.904H63.928C64.52 18.904 65.016 18.688 65.416 18.256C65.832 17.808 66.04 17.256 66.04 16.6C66.04 15.944 65.832 15.408 65.416 14.992C65.016 14.56 64.52 14.344 63.928 14.344H60.64V18.904Z" fill="#494D4B"/>
<path d="M77.9589 28.24C76.6629 28.24 75.5109 27.96 74.5029 27.4C73.4949 26.824 72.7029 26.04 72.1269 25.048C71.5509 24.056 71.2629 22.92 71.2629 21.64C71.2629 20.376 71.5509 19.248 72.1269 18.256C72.7029 17.264 73.4949 16.488 74.5029 15.928C75.5109 15.352 76.6629 15.064 77.9589 15.064C79.2229 15.064 80.3589 15.352 81.3669 15.928C82.3749 16.488 83.1669 17.264 83.7429 18.256C84.3189 19.248 84.6069 20.376 84.6069 21.64C84.6069 22.92 84.3189 24.056 83.7429 25.048C83.1669 26.04 82.3749 26.824 81.3669 27.4C80.3589 27.96 79.2229 28.24 77.9589 28.24ZM77.9589 25.384C78.5989 25.384 79.1749 25.224 79.6869 24.904C80.1989 24.568 80.5909 24.12 80.8629 23.56C81.1509 23 81.2949 22.36 81.2949 21.64C81.2949 20.92 81.1509 20.28 80.8629 19.72C80.5909 19.16 80.1989 18.72 79.6869 18.4C79.1749 18.08 78.5989 17.92 77.9589 17.92C77.3029 17.92 76.7189 18.08 76.2069 18.4C75.6949 18.72 75.2949 19.16 75.0069 19.72C74.7189 20.28 74.5749 20.92 74.5749 21.64C74.5749 22.36 74.7189 23 75.0069 23.56C75.2949 24.12 75.6949 24.568 76.2069 24.904C76.7189 25.224 77.3029 25.384 77.9589 25.384Z" fill="#494D4B"/>
<path d="M92.2121 28.24C91.0921 28.24 90.0921 27.96 89.2121 27.4C88.3321 26.824 87.6361 26.04 87.1241 25.048C86.6281 24.056 86.3801 22.928 86.3801 21.664C86.3801 20.384 86.6281 19.248 87.1241 18.256C87.6361 17.264 88.3321 16.488 89.2121 15.928C90.0921 15.352 91.0921 15.064 92.2121 15.064C92.9801 15.064 93.7081 15.216 94.3961 15.52C95.1001 15.824 95.6681 16.216 96.1001 16.696V10.24H99.388V28H96.2681L96.2201 26.488C95.8041 26.984 95.2361 27.4 94.5161 27.736C93.7961 28.072 93.0281 28.24 92.2121 28.24ZM92.9321 25.504C93.9081 25.504 94.7001 25.152 95.3081 24.448C95.9161 23.728 96.2201 22.8 96.2201 21.664C96.2201 20.512 95.9161 19.584 95.3081 18.88C94.7001 18.16 93.9081 17.8 92.9321 17.8C91.9561 17.8 91.1641 18.16 90.5561 18.88C89.9481 19.584 89.6441 20.512 89.6441 21.664C89.6441 22.8 89.9481 23.728 90.5561 24.448C91.1641 25.152 91.9561 25.504 92.9321 25.504Z" fill="#494D4B"/>
<path d="M108.208 28.24C107.008 28.24 105.928 27.952 104.968 27.376C104.024 26.8 103.272 26.016 102.712 25.024C102.168 24.032 101.896 22.904 101.896 21.64C101.896 20.392 102.168 19.272 102.712 18.28C103.272 17.288 104.024 16.504 104.968 15.928C105.928 15.352 107.008 15.064 108.208 15.064C109.344 15.064 110.376 15.272 111.304 15.688C112.248 16.104 112.984 16.688 113.512 17.44L111.712 19.6C111.376 19.136 110.912 18.744 110.32 18.424C109.728 18.088 109.128 17.92 108.52 17.92C107.848 17.92 107.248 18.088 106.72 18.424C106.208 18.744 105.8 19.184 105.496 19.744C105.208 20.304 105.064 20.936 105.064 21.64C105.064 22.344 105.216 22.976 105.52 23.536C105.824 24.096 106.24 24.544 106.768 24.88C107.296 25.2 107.888 25.36 108.544 25.36C109.168 25.36 109.744 25.224 110.272 24.952C110.8 24.664 111.28 24.264 111.712 23.752L113.512 25.912C112.968 26.616 112.216 27.184 111.256 27.616C110.296 28.032 109.28 28.24 108.208 28.24Z" fill="#494D4B"/>
<path d="M120.472 28.24C119.416 28.24 118.464 27.952 117.616 27.376C116.768 26.8 116.088 26.016 115.576 25.024C115.08 24.032 114.832 22.904 114.832 21.64C114.832 20.344 115.08 19.208 115.576 18.232C116.088 17.24 116.776 16.464 117.64 15.904C118.52 15.344 119.512 15.064 120.616 15.064C121.512 15.064 122.296 15.248 122.968 15.616C123.64 15.968 124.176 16.432 124.576 17.008V15.328H127.84V28H124.552V26.296C124.104 26.856 123.52 27.32 122.8 27.688C122.096 28.056 121.32 28.24 120.472 28.24ZM121.36 25.384C122.336 25.384 123.128 25.04 123.736 24.352C124.344 23.664 124.648 22.76 124.648 21.64C124.648 20.52 124.344 19.616 123.736 18.928C123.128 18.24 122.336 17.896 121.36 17.896C120.4 17.896 119.616 18.24 119.008 18.928C118.416 19.616 118.12 20.52 118.12 21.64C118.12 22.76 118.416 23.664 119.008 24.352C119.616 25.04 120.4 25.384 121.36 25.384Z" fill="#494D4B"/>
<path d="M135.531 28.24C134.363 28.24 133.323 28.048 132.411 27.664C131.499 27.28 130.763 26.736 130.203 26.032L132.267 24.28C132.747 24.808 133.291 25.192 133.899 25.432C134.507 25.656 135.123 25.768 135.747 25.768C136.243 25.768 136.643 25.656 136.947 25.432C137.251 25.208 137.403 24.896 137.403 24.496C137.403 24.144 137.259 23.864 136.971 23.656C136.683 23.464 135.995 23.224 134.907 22.936C133.291 22.52 132.147 21.952 131.475 21.232C130.883 20.592 130.587 19.8 130.587 18.856C130.587 18.104 130.811 17.448 131.259 16.888C131.707 16.312 132.299 15.864 133.035 15.544C133.771 15.224 134.571 15.064 135.435 15.064C136.427 15.064 137.363 15.24 138.243 15.592C139.123 15.944 139.859 16.424 140.451 17.032L138.675 18.976C138.227 18.56 137.707 18.216 137.115 17.944C136.539 17.656 136.003 17.512 135.507 17.512C134.355 17.512 133.779 17.912 133.779 18.712C133.795 19.096 133.971 19.4 134.307 19.624C134.627 19.848 135.355 20.112 136.491 20.416C138.011 20.816 139.083 21.344 139.707 22C140.251 22.56 140.523 23.304 140.523 24.232C140.523 25 140.299 25.688 139.851 26.296C139.419 26.904 138.827 27.384 138.075 27.736C137.323 28.072 136.475 28.24 135.531 28.24Z" fill="#494D4B"/>
<path d="M144.249 28V18.28H141.849V15.328H144.249V12.088H147.513V15.328H150.177V18.28H147.513V28H144.249Z" fill="#494D4B"/>
<path d="M37.125 18.8876C37.1494 22.0542 36.3398 25.1714 34.7774 27.9259C34.575 28.2837 34.3607 28.6337 34.1344 28.9759C34.0225 29.1498 33.8772 29.2998 33.7069 29.4171C33.5367 29.5345 33.3448 29.6169 33.1424 29.6595C32.94 29.7021 32.7312 29.7041 32.5281 29.6655C32.3249 29.6268 32.1315 29.5482 31.9589 29.4341C31.7864 29.3201 31.6382 29.173 31.523 29.0013C31.4077 28.8296 31.3277 28.6367 31.2875 28.4338C31.2474 28.231 31.2479 28.0222 31.2891 27.8195C31.3303 27.6168 31.4113 27.4244 31.5274 27.2532C33.0185 24.9897 33.8685 22.3644 33.987 19.6564C34.1054 16.9484 33.4879 14.2589 32.2001 11.8738C30.9123 9.4887 29.0022 7.49708 26.673 6.11069C24.3438 4.7243 21.6825 3.99493 18.9719 4.0001C13.7618 4.01026 9.1422 6.74541 6.45706 10.8321C4.85189 13.2703 3.99772 16.1259 4.0005 19.045C4.00327 21.9641 4.86288 24.8182 6.47269 27.2532C6.70092 27.5991 6.78239 28.0216 6.69917 28.4275C6.61595 28.8335 6.37486 29.1898 6.02894 29.4181C5.68302 29.6463 5.2606 29.7278 4.85461 29.6445C4.44863 29.5613 4.09233 29.3202 3.8641 28.9743C2.0791 26.2655 1.05381 23.1272 0.895211 19.887C0.736621 16.6468 1.45053 13.4235 2.96245 10.5533C4.47437 7.68306 6.72889 5.27121 9.4907 3.56941C12.2526 1.86761 15.4206 0.938219 18.6641 0.878219C18.7782 0.875879 18.8914 0.875099 19.0047 0.875099C23.7949 0.865229 28.3933 2.75637 31.7905 6.13341C35.1878 9.5105 37.1063 14.0975 37.125 18.8876Z" fill="#494D4B"/>
<path d="M152.376 28V15.328H155.544L155.592 17.416C156.008 16.728 156.552 16.168 157.224 15.736C157.912 15.288 158.632 15.064 159.384 15.064C159.672 15.064 159.936 15.088 160.176 15.136C160.432 15.168 160.648 15.216 160.824 15.28L159.936 18.88C159.76 18.784 159.536 18.704 159.264 18.64C158.992 18.576 158.72 18.544 158.448 18.544C157.664 18.544 157 18.816 156.456 19.36C155.928 19.888 155.664 20.56 155.664 21.376V28H152.376Z" fill="#494D4B"/>
<path d="M8.06585 21.7944L10.8978 35.8819C11.0678 36.7276 11.8911 37.2753 12.7368 37.1053C13.5825 36.9353 14.1303 36.1119 13.9603 35.2663L11.1284 21.1788C10.9584 20.3331 10.135 19.7853 9.2893 19.9553C8.4436 20.1253 7.89585 20.9487 8.06585 21.7944Z" fill="#04D361"/>
<path d="M10.8437 35.5641L10.1257 35.7086C9.0589 35.9234 7.95026 35.7225 7.02665 35.147C6.10304 34.5715 5.4342 33.6648 5.15694 32.6125C5.13585 32.5313 5.11632 32.45 5.09991 32.3672L4.071 27.2555C3.84803 26.1459 4.07473 24.9931 4.70129 24.0506C5.32784 23.108 6.30298 22.4528 7.41241 22.2289L8.13038 22.0844L9.3898 28.3406L10.8437 35.5641Z" fill="#494D4B"/>
<path d="M10.8437 35.5641L10.1258 35.7086C9.0589 35.9234 7.95031 35.7225 7.0267 35.147C6.10308 34.5715 5.43425 33.6649 5.15698 32.6125C6.67436 31.2981 8.08939 29.87 9.3898 28.3407L10.8437 35.5641Z" fill="#494D4B"/>
<path d="M35.1477 26.0875L34.7774 27.9258C34.575 28.2836 34.3607 28.6336 34.1344 28.9758C34.0225 29.1497 33.8772 29.2997 33.7069 29.4171C33.5366 29.5344 33.3448 29.6168 33.1424 29.6594C32.94 29.702 32.7312 29.7041 32.5281 29.6654C32.3249 29.6267 32.1315 29.5481 31.9589 29.4341C31.7864 29.3201 31.6382 29.1729 31.5229 29.0012C31.4077 28.8295 31.3277 28.6366 31.2875 28.4338C31.2474 28.2309 31.2479 28.0221 31.2891 27.8194C31.3303 27.6167 31.4112 27.4243 31.5274 27.2531C32.5865 25.6502 33.3258 23.8577 33.7047 21.9742C34.2927 22.4668 34.7371 23.1089 34.991 23.8327C35.245 24.5566 35.2991 25.3355 35.1477 26.0875Z" fill="#494D4B"/>
<path d="M33.2953 7.82973L31.0539 10.0711C29.6573 8.18253 27.836 6.64893 25.7371 5.59429C23.6383 4.53964 21.3208 3.99352 18.9719 4.00005C13.7617 4.0102 9.1422 6.74536 6.45703 10.832L4.18359 8.55863C5.82274 6.2294 7.98843 4.31987 10.5046 2.9853C13.0207 1.65072 15.8163 0.928775 18.6641 0.878165C18.7781 0.875825 18.8914 0.875045 19.0047 0.875045C21.7591 0.868875 24.4786 1.49226 26.9553 2.69759C29.4321 3.90293 31.6006 5.65832 33.2953 7.82973Z" fill="#8257E5"/>
<path d="M188.5 19.9685C188.5 16.7141 189.043 14.3363 190.052 12.7862C191.037 11.2716 192.498 10.5 194.5 10.5C196.502 10.5 197.962 11.2742 198.948 12.7951C199.957 14.3518 200.5 16.7393 200.5 20.0063C200.5 23.2692 199.957 25.6535 198.948 27.208C197.962 28.7267 196.502 29.5 194.5 29.5C192.98 29.5 191.875 29.0609 191.059 28.393C190.234 27.7188 189.668 26.7826 189.282 25.7377C188.504 23.634 188.5 21.2124 188.5 19.9685ZM196.733 20.0063C196.733 19.9588 196.733 19.9094 196.733 19.8582C196.734 18.9655 196.735 17.5437 196.528 16.3173C196.419 15.6724 196.246 15.0322 195.952 14.5409C195.651 14.0361 195.18 13.6292 194.5 13.6292C193.829 13.6292 193.335 14.0225 192.994 14.5126C192.657 14.9966 192.424 15.6318 192.259 16.28C191.928 17.5831 191.833 19.0978 191.833 20.0063C191.833 20.9203 191.93 22.432 192.262 23.7308C192.428 24.3769 192.661 25.0095 192.998 25.4915C193.339 25.9793 193.831 26.3708 194.5 26.3708C195.182 26.3708 195.654 25.9653 195.956 25.4598C196.251 24.9683 196.424 24.3282 196.532 23.684C196.736 22.4706 196.734 21.0664 196.733 20.1785C196.733 20.1187 196.733 20.0612 196.733 20.0063Z" fill="#494D4B" stroke="#494D4B"/>
<path d="M26.8465 21.1635L24.0146 35.251C23.8446 36.0967 24.3923 36.9201 25.238 37.0901C26.0837 37.2601 26.9071 36.7123 27.0771 35.8666L29.909 21.7791C30.079 20.9335 29.5312 20.1101 28.6855 19.9401C27.8398 19.7701 27.0165 20.3178 26.8465 21.1635Z" fill="#04D361"/>
<path d="M33.9291 27.2555L32.9002 32.3672C32.6768 33.4767 32.0218 34.4521 31.0793 35.0787C30.1368 35.7054 28.9839 35.9319 27.8743 35.7086L27.1562 35.5641L27.9 31.8711L29.8695 22.0844L30.5875 22.2289C31.6968 22.4531 32.672 23.108 33.2992 24.05C33.3856 24.1799 33.4646 24.3144 33.5359 24.4531C33.9817 25.3154 34.1205 26.3038 33.9291 27.2555Z" fill="#494D4B"/>
<path d="M184.993 25.9998C183.906 25.9709 182.99 26.8396 182.961 27.9262C182.932 29.0136 183.8 29.9294 184.887 29.9583C185.975 29.9872 186.89 29.1189 186.919 28.0315C186.948 26.9449 186.08 26.0287 184.993 25.9998Z" fill="#494D4B"/>
<path d="M33.9291 27.2555L32.9002 32.3672C32.6768 33.4768 32.0218 34.4521 31.0793 35.0788C30.1368 35.7054 28.9839 35.932 27.8743 35.7086L27.1562 35.5641L27.9 31.8711C30.0403 29.6086 31.9299 27.1215 33.5359 24.4531C33.9817 25.3154 34.1205 26.3039 33.9291 27.2555Z" fill="#494D4B"/>
</svg>
