<svg width="163" height="40" viewBox="0 0 163 40" fill="none" xmlns="http://www.w3.org/2000/svg">
<path d="M58.208 29V12.2H65.288C66.28 12.2 67.168 12.44 67.952 12.92C68.752 13.384 69.384 14.024 69.848 14.84C70.328 15.64 70.568 16.544 70.568 17.552C70.568 18.592 70.328 19.528 69.848 20.36C69.384 21.176 68.752 21.832 67.952 22.328C67.168 22.808 66.28 23.048 65.288 23.048H61.664V29H58.208ZM61.64 19.904H64.928C65.52 19.904 66.016 19.688 66.416 19.256C66.832 18.808 67.04 18.256 67.04 17.6C67.04 16.944 66.832 16.408 66.416 15.992C66.016 15.56 65.52 15.344 64.928 15.344H61.64V19.904Z" fill="#F7F8FA"/>
<path d="M78.9589 29.24C77.6629 29.24 76.5109 28.96 75.5029 28.4C74.4949 27.824 73.7029 27.04 73.1269 26.048C72.5509 25.056 72.2629 23.92 72.2629 22.64C72.2629 21.376 72.5509 20.248 73.1269 19.256C73.7029 18.264 74.4949 17.488 75.5029 16.928C76.5109 16.352 77.6629 16.064 78.9589 16.064C80.2229 16.064 81.3589 16.352 82.3669 16.928C83.3749 17.488 84.1669 18.264 84.7429 19.256C85.3189 20.248 85.6069 21.376 85.6069 22.64C85.6069 23.92 85.3189 25.056 84.7429 26.048C84.1669 27.04 83.3749 27.824 82.3669 28.4C81.3589 28.96 80.2229 29.24 78.9589 29.24ZM78.9589 26.384C79.5989 26.384 80.1749 26.224 80.6869 25.904C81.1989 25.568 81.5909 25.12 81.8629 24.56C82.1509 24 82.2949 23.36 82.2949 22.64C82.2949 21.92 82.1509 21.28 81.8629 20.72C81.5909 20.16 81.1989 19.72 80.6869 19.4C80.1749 19.08 79.5989 18.92 78.9589 18.92C78.3029 18.92 77.7189 19.08 77.2069 19.4C76.6949 19.72 76.2949 20.16 76.0069 20.72C75.7189 21.28 75.5749 21.92 75.5749 22.64C75.5749 23.36 75.7189 24 76.0069 24.56C76.2949 25.12 76.6949 25.568 77.2069 25.904C77.7189 26.224 78.3029 26.384 78.9589 26.384Z" fill="#F7F8FA"/>
<path d="M93.2121 29.24C92.0921 29.24 91.0921 28.96 90.2121 28.4C89.3321 27.824 88.6361 27.04 88.1241 26.048C87.6281 25.056 87.3801 23.928 87.3801 22.664C87.3801 21.384 87.6281 20.248 88.1241 19.256C88.6361 18.264 89.3321 17.488 90.2121 16.928C91.0921 16.352 92.0921 16.064 93.2121 16.064C93.9801 16.064 94.7081 16.216 95.3961 16.52C96.1001 16.824 96.6681 17.216 97.1001 17.696V11.24H100.388V29H97.2681L97.2201 27.488C96.8041 27.984 96.2361 28.4 95.5161 28.736C94.7961 29.072 94.0281 29.24 93.2121 29.24ZM93.9321 26.504C94.9081 26.504 95.7001 26.152 96.3081 25.448C96.9161 24.728 97.2201 23.8 97.2201 22.664C97.2201 21.512 96.9161 20.584 96.3081 19.88C95.7001 19.16 94.9081 18.8 93.9321 18.8C92.9561 18.8 92.1641 19.16 91.5561 19.88C90.9481 20.584 90.6441 21.512 90.6441 22.664C90.6441 23.8 90.9481 24.728 91.5561 25.448C92.1641 26.152 92.9561 26.504 93.9321 26.504Z" fill="#F7F8FA"/>
<path d="M109.208 29.24C108.008 29.24 106.928 28.952 105.968 28.376C105.024 27.8 104.272 27.016 103.712 26.024C103.168 25.032 102.896 23.904 102.896 22.64C102.896 21.392 103.168 20.272 103.712 19.28C104.272 18.288 105.024 17.504 105.968 16.928C106.928 16.352 108.008 16.064 109.208 16.064C110.344 16.064 111.376 16.272 112.304 16.688C113.248 17.104 113.984 17.688 114.512 18.44L112.712 20.6C112.376 20.136 111.912 19.744 111.32 19.424C110.728 19.088 110.128 18.92 109.52 18.92C108.848 18.92 108.248 19.088 107.72 19.424C107.208 19.744 106.8 20.184 106.496 20.744C106.208 21.304 106.064 21.936 106.064 22.64C106.064 23.344 106.216 23.976 106.52 24.536C106.824 25.096 107.24 25.544 107.768 25.88C108.296 26.2 108.888 26.36 109.544 26.36C110.168 26.36 110.744 26.224 111.272 25.952C111.8 25.664 112.28 25.264 112.712 24.752L114.512 26.912C113.968 27.616 113.216 28.184 112.256 28.616C111.296 29.032 110.28 29.24 109.208 29.24Z" fill="#F7F8FA"/>
<path d="M121.472 29.24C120.416 29.24 119.464 28.952 118.616 28.376C117.768 27.8 117.088 27.016 116.576 26.024C116.08 25.032 115.832 23.904 115.832 22.64C115.832 21.344 116.08 20.208 116.576 19.232C117.088 18.24 117.776 17.464 118.64 16.904C119.52 16.344 120.512 16.064 121.616 16.064C122.512 16.064 123.296 16.248 123.968 16.616C124.64 16.968 125.176 17.432 125.576 18.008V16.328H128.84V29H125.552V27.296C125.104 27.856 124.52 28.32 123.8 28.688C123.096 29.056 122.32 29.24 121.472 29.24ZM122.36 26.384C123.336 26.384 124.128 26.04 124.736 25.352C125.344 24.664 125.648 23.76 125.648 22.64C125.648 21.52 125.344 20.616 124.736 19.928C124.128 19.24 123.336 18.896 122.36 18.896C121.4 18.896 120.616 19.24 120.008 19.928C119.416 20.616 119.12 21.52 119.12 22.64C119.12 23.76 119.416 24.664 120.008 25.352C120.616 26.04 121.4 26.384 122.36 26.384Z" fill="#F7F8FA"/>
<path d="M136.531 29.24C135.363 29.24 134.323 29.048 133.411 28.664C132.499 28.28 131.763 27.736 131.203 27.032L133.267 25.28C133.747 25.808 134.291 26.192 134.899 26.432C135.507 26.656 136.123 26.768 136.747 26.768C137.243 26.768 137.643 26.656 137.947 26.432C138.251 26.208 138.403 25.896 138.403 25.496C138.403 25.144 138.259 24.864 137.971 24.656C137.683 24.464 136.995 24.224 135.907 23.936C134.291 23.52 133.147 22.952 132.475 22.232C131.883 21.592 131.587 20.8 131.587 19.856C131.587 19.104 131.811 18.448 132.259 17.888C132.707 17.312 133.299 16.864 134.035 16.544C134.771 16.224 135.571 16.064 136.435 16.064C137.427 16.064 138.363 16.24 139.243 16.592C140.123 16.944 140.859 17.424 141.451 18.032L139.675 19.976C139.227 19.56 138.707 19.216 138.115 18.944C137.539 18.656 137.003 18.512 136.507 18.512C135.355 18.512 134.779 18.912 134.779 19.712C134.795 20.096 134.971 20.4 135.307 20.624C135.627 20.848 136.355 21.112 137.491 21.416C139.011 21.816 140.083 22.344 140.707 23C141.251 23.56 141.523 24.304 141.523 25.232C141.523 26 141.299 26.688 140.851 27.296C140.419 27.904 139.827 28.384 139.075 28.736C138.323 29.072 137.475 29.24 136.531 29.24Z" fill="#F7F8FA"/>
<path d="M145.249 29V19.28H142.849V16.328H145.249V13.088H148.513V16.328H151.177V19.28H148.513V29H145.249Z" fill="#F7F8FA"/>
<path d="M153.376 29V16.328H156.544L156.592 18.416C157.008 17.728 157.552 17.168 158.224 16.736C158.912 16.288 159.632 16.064 160.384 16.064C160.672 16.064 160.936 16.088 161.176 16.136C161.432 16.168 161.648 16.216 161.824 16.28L160.936 19.88C160.76 19.784 160.536 19.704 160.264 19.64C159.992 19.576 159.72 19.544 159.448 19.544C158.664 19.544 158 19.816 157.456 20.36C156.928 20.888 156.664 21.56 156.664 22.376V29H153.376Z" fill="#F7F8FA"/>
<path d="M38.125 19.8876C38.1494 23.0542 37.3398 26.1714 35.7774 28.9259C35.575 29.2837 35.3607 29.6337 35.1344 29.9759C35.0225 30.1498 34.8772 30.2998 34.7069 30.4171C34.5367 30.5345 34.3448 30.6169 34.1424 30.6595C33.94 30.7021 33.7312 30.7041 33.5281 30.6655C33.3249 30.6268 33.1315 30.5482 32.9589 30.4341C32.7864 30.3201 32.6382 30.173 32.523 30.0013C32.4077 29.8296 32.3277 29.6367 32.2875 29.4338C32.2474 29.231 32.2479 29.0222 32.2891 28.8195C32.3303 28.6168 32.4113 28.4244 32.5274 28.2532C34.0185 25.9897 34.8685 23.3644 34.987 20.6564C35.1054 17.9484 34.4879 15.2589 33.2001 12.8738C31.9123 10.4887 30.0022 8.49708 27.673 7.11069C25.3438 5.7243 22.6825 4.99493 19.9719 5.0001C14.7618 5.01026 10.1422 7.74541 7.45706 11.8321C5.85189 14.2703 4.99772 17.1259 5.0005 20.045C5.00327 22.9641 5.86288 25.8182 7.47269 28.2532C7.70092 28.5991 7.78239 29.0216 7.69917 29.4275C7.61595 29.8335 7.37486 30.1898 7.02894 30.4181C6.68302 30.6463 6.2606 30.7278 5.85461 30.6445C5.44863 30.5613 5.09233 30.3202 4.8641 29.9743C3.0791 27.2655 2.05381 24.1272 1.89521 20.887C1.73662 17.6468 2.45053 14.4235 3.96245 11.5533C5.47437 8.68306 7.72889 6.27121 10.4907 4.56941C13.2526 2.86761 16.4206 1.93822 19.6641 1.87822C19.7782 1.87588 19.8914 1.8751 20.0047 1.8751C24.7949 1.86523 29.3933 3.75637 32.7905 7.13341C36.1878 10.5105 38.1063 15.0975 38.125 19.8876Z" fill="#F7F8FA"/>
<path d="M9.06585 22.7944L11.8978 36.8819C12.0678 37.7276 12.8911 38.2753 13.7368 38.1053C14.5825 37.9353 15.1303 37.1119 14.9603 36.2663L12.1284 22.1788C11.9584 21.3331 11.135 20.7853 10.2893 20.9553C9.4436 21.1253 8.89585 21.9487 9.06585 22.7944Z" fill="#04D361"/>
<path d="M11.8437 36.5641L11.1257 36.7086C10.0589 36.9234 8.95026 36.7225 8.02665 36.147C7.10304 35.5715 6.4342 34.6648 6.15694 33.6125C6.13585 33.5313 6.11632 33.45 6.09991 33.3672L5.071 28.2555C4.84803 27.1459 5.07473 25.9931 5.70129 25.0506C6.32784 24.108 7.30298 23.4528 8.41241 23.2289L9.13038 23.0844L10.3898 29.3406L11.8437 36.5641Z" fill="#F7F8FA"/>
<path d="M11.8437 36.5641L11.1258 36.7086C10.0589 36.9234 8.95031 36.7225 8.0267 36.147C7.10308 35.5715 6.43425 34.6649 6.15698 33.6125C7.67436 32.2981 9.08939 30.87 10.3898 29.3407L11.8437 36.5641Z" fill="#F7F8FA"/>
<path d="M36.1477 27.0875L35.7774 28.9258C35.575 29.2836 35.3607 29.6336 35.1344 29.9758C35.0225 30.1497 34.8772 30.2997 34.7069 30.4171C34.5366 30.5344 34.3448 30.6168 34.1424 30.6594C33.94 30.702 33.7312 30.7041 33.5281 30.6654C33.3249 30.6267 33.1315 30.5481 32.9589 30.4341C32.7864 30.3201 32.6382 30.1729 32.5229 30.0012C32.4077 29.8295 32.3277 29.6366 32.2875 29.4338C32.2474 29.2309 32.2479 29.0221 32.2891 28.8194C32.3303 28.6167 32.4112 28.4243 32.5274 28.2531C33.5865 26.6502 34.3258 24.8577 34.7047 22.9742C35.2927 23.4668 35.7371 24.1089 35.991 24.8327C36.245 25.5566 36.2991 26.3355 36.1477 27.0875Z" fill="#F7F8FA"/>
<path d="M34.2953 8.82974L32.0539 11.0711C30.6573 9.18253 28.836 7.64894 26.7371 6.59429C24.6383 5.53965 22.3208 4.99352 19.9719 5.00005C14.7617 5.0102 10.1422 7.74536 7.45703 11.832L5.18359 9.55864C6.82274 7.22941 8.98843 5.31987 11.5046 3.9853C14.0207 2.65072 16.8163 1.92878 19.6641 1.87817C19.7781 1.87583 19.8914 1.87505 20.0047 1.87505C22.7591 1.86888 25.4786 2.49226 27.9553 3.69759C30.4321 4.90293 32.6006 6.65833 34.2953 8.82974Z" fill="#8257E5"/>
<path d="M27.8465 22.1635L25.0146 36.251C24.8446 37.0967 25.3923 37.9201 26.238 38.0901C27.0837 38.2601 27.9071 37.7123 28.0771 36.8666L30.909 22.7791C31.079 21.9335 30.5312 21.1101 29.6855 20.9401C28.8398 20.7701 28.0165 21.3178 27.8465 22.1635Z" fill="#04D361"/>
<path d="M34.929 28.2555L33.9001 33.3672C33.6767 34.4767 33.0217 35.4521 32.0792 36.0787C31.1367 36.7054 29.9839 36.9319 28.8743 36.7086L28.1562 36.5641L28.9 32.8711L30.8695 23.0844L31.5875 23.2289C32.6968 23.4531 33.672 24.108 34.2992 25.05C34.3856 25.1799 34.4646 25.3144 34.5359 25.4531C34.9817 26.3154 35.1204 27.3038 34.929 28.2555Z" fill="#F7F8FA"/>
<path d="M34.929 28.2555L33.9001 33.3672C33.6767 34.4768 33.0217 35.4521 32.0792 36.0788C31.1367 36.7054 29.9839 36.932 28.8743 36.7086L28.1562 36.5641L28.9 32.8711C31.0403 30.6086 32.9299 28.1215 34.5359 25.4531C34.9817 26.3154 35.1204 27.3039 34.929 28.2555Z" fill="#F7F8FA"/>
</svg>
